<?xml version="1.0" encoding="utf-8"?>
<svg version="1.1" xmlns="http://www.w3.org/2000/svg" xmlns:xlink="http://www.w3.org/1999/xlink" x="0px" y="0px" viewBox="0 0 20 20" xml:space="preserve" aria-label="Phone Icon">
  <path d="M4,1a2.11,2.11,0,0,1,.72.51A13.7,13.7,0,0,1,6,2.93,8.32,8.32,0,0,1,7.5,5.49c-.06.23-.84.72-1.26,1s-.75.46-1.07.71A1.93,1.93,0,0,0,4.51,8l-.1.34.13.33a14.18,14.18,0,0,0,6.77,6.77l.34.14.35-.12a1.81,1.81,0,0,0,.82-.65,10,10,0,0,0,.72-1.07c.26-.42.74-1.2,1-1.26A8.21,8.21,0,0,1,17.07,14a13.7,13.7,0,0,1,1.42,1.27c.47.51.51.71.51.71h0a3.8,3.8,0,0,1-1.06,1.79A3.36,3.36,0,0,1,16,19h0a11.57,11.57,0,0,1-5.15-1.38A19.49,19.49,0,0,1,6,14a19.53,19.53,0,0,1-3.6-4.87A11.57,11.57,0,0,1,1,4,3.27,3.27,0,0,1,2.22,2.06,3.91,3.91,0,0,1,4,1M4,0A4.54,4.54,0,0,0,1.54,1.32,4.27,4.27,0,0,0,0,4,12.43,12.43,0,0,0,1.5,9.6a20.63,20.63,0,0,0,3.78,5.13,20.83,20.83,0,0,0,5.12,3.78A12.4,12.4,0,0,0,16,20h0a4.24,4.24,0,0,0,2.68-1.54A4.54,4.54,0,0,0,20,16a2.28,2.28,0,0,0-.78-1.39,13,13,0,0,0-1.54-1.38c-.37-.29-2.27-1.73-3.18-1.73-.75,0-1.27.85-1.82,1.74a10,10,0,0,1-.64,1c-.22.28-.34.33-.36.33A13.18,13.18,0,0,1,5.47,8.32s0-.14.33-.37a10.69,10.69,0,0,1,1-.63C7.65,6.77,8.5,6.25,8.5,5.5c0-.91-1.44-2.81-1.73-3.18A14.09,14.09,0,0,0,5.39.77,2.35,2.35,0,0,0,4,0Z"/>
</svg>
