<?xml version="1.0" encoding="utf-8"?>
<svg version="1.1" id="Layer_1" xmlns="http://www.w3.org/2000/svg" xmlns:xlink="http://www.w3.org/1999/xlink" x="0px" y="0px" viewBox="0 0 333 342" style="enable-background:new 0 0 333 342;" xml:space="preserve" aria-label="Mountain scattering" role="img">
  <style type="text/css">.st0{fill:#C08A60;} .st1{fill:#956447;} .st2{fill:#774E41;} .st3{fill:#ECBD00;} .st4{opacity:0.4;}</style>
  <polygon class="st0" points="83.5,7.2 86,2 90.3,-0.1 92.2,6.3"/>
  <polygon class="st0" points="65,25.3 65.2,20.9 68.2,17.1 83.8,28 84.1,30.2 82.7,32.3"/>
  <polygon class="st1" points="66,29.3 65,25.3 82.7,32.3 84.1,30.2 83.1,35"/>
  <polygon class="st1" points="204.4,182 212.5,164 208.6,164.1 200.9,169.3 196.4,177.8 200.6,182.1"/>
  <polygon class="st1" points="266.9,103.6 265.4,110.5 258,115.9 256.8,112.4 258.1,109.2"/>
  <polygon class="st0" points="10.2,119.6 15.7,115.6 22.2,117.6 20.6,122.8"/>
  <polygon class="st1" points="36.6,125.6 41.8,126.7 42.8,130.9 41,131.8 37.2,130.4"/>
  <polygon class="st0" points="78.1,106 73.7,109 73.8,111.7 82.1,117.5 88.5,116 89.2,113.8"/>
  <polygon class="st0" points="30.5,237.1 38.5,230.6 29.7,228.8"/>
  <polygon class="st0" points="71.6,222.1 73.4,223.1 78.1,220.5 78.1,218.6 75.9,218"/>
  <polygon class="st0" points="257.7,139.4 257.7,145.9 277.9,137.2 279,131.6 274,130.8"/>
  <polygon class="st2" points="260.1,150.8 257.7,145.9 277.9,137.2 279,131.6 279,141.2"/>
  <polygon class="st0" points="206.4,31.5 217.6,24.4 219.8,30 217.5,34.4 208.5,36.6"/>
  <polygon class="st1" points="227.6,53.2 227.3,48.5 229.5,45.8 233.4,45.8 231.2,52.2"/>
  <polygon class="st0" points="243.2,23.6 246.3,22.5 247.9,20.2 247.9,16.2 243.9,17.1 242.4,21.5"/>
  <polygon class="st0" points="247.7,103.3 251.1,102.3 250.4,106.7 247.1,108.9"/>
  <polygon class="st0" points="88.7,79.1 90.8,84.7 93.8,84.7 93.8,81 91.9,80.5 92.3,77.7 89.5,77.1"/>
  <polygon class="st0" points="173.7,157.4 179,154.3 179,163.2"/>
  <polygon class="st0" points="61.7,84.9 61.2,80.4 65.4,79.7 66.8,80.9 64,82.4 63.7,85.2"/>
  <polygon class="st1" points="112.8,176.7 120,179.9 121.7,180 121.8,182.7 119,183.5 112.4,182.6 109.7,178.7"/>
  <rect y="176.7" class="st3" width="333" height="1"/>
  <polygon class="st3 st4" points="0,176.8 0,188.7 333,188.7 333,177.2"/>
  <polygon class="st3 st4" points="333,195.6 0,195.8 0,190.6 333,190.6"/>
  <polygon class="st0" points="231.9,197.1 236.5,200.4 237.2,202 232.9,202.3 231.2,200.3 231.3,197.8"/>
  <polygon class="st0" points="22.6,63 26,65.8 27.5,69.1 26.5,70.2 22.3,69.2 18.6,64.6 19,62"/>
  <polygon class="st1" points="290.9,285.6 296.5,287.6 297.7,289.8 294.9,290.4 288.9,287.6"/>
  <polygon class="st0" points="253.3,191.8 253.8,195.1 256.6,196.2 262.9,193.4 265.6,190.4 264.4,189.1 260.3,188.8"/>
  <polygon class="st0" points="321.4,132.9 320.7,137.1 322.5,140 325.4,138.5 327.4,135.8 327.1,132 324,132.8"/>
  <polygon class="st0" points="295.2,85.7 294.5,80.4 298.9,76.6 298.9,84.9"/>
  <polygon class="st0" points="182.4,231.7 179.1,272 187.8,341.8 208.4,341.8 216.9,306.9 208.2,272.5 216.4,259.5 220.3,229.4 210.7,204 184.8,208.2"/>
  <polygon class="st0" points="124.7,203.1 162.7,191.6 168.1,208.7 178.4,221.8 182.4,231.7 179.1,272 187.8,341.8 205.4,341.8 133,341.9 119.5,272.2 132.7,259.8 124.7,227.9"/>
  <polygon class="st0" points="100,341.9 101.6,322.8 107.6,320 119.4,272.2 132.7,259.8 138.9,257.9 137.8,264.9 144.7,279.5 141.5,341.8"/>
  <polygon class="st0" points="66.4,341.6 72.6,299.7 80.4,293.6 88.8,217.7 107.1,205.1 109.7,217.5 108.2,254.6 119.5,272.2 133,341.9"/>
  <polygon class="st2" points="227.9,203.8 235.1,214.3 250.9,221.6 263.2,260.4 268.4,341.9 238.5,341.8 245.9,309 229.8,254.2 231.1,239.7 220.3,229.4 210.7,204"/>
  <polygon class="st1" points="231.1,239.7 229.8,254.2 245.9,309 238.5,341.8 208.4,341.8 216.9,306.9 208.2,272.5 216.4,259.5 220.3,229.4"/>
  <polygon class="st1" points="171,298 180.9,227.9 182.4,231.7 179.1,272 187.8,341.8 173.1,341.8"/>
  <polygon class="st2" points="162.7,191.6 183.5,197.8 190.8,197.3 206.1,204.8 184.8,208.2 182.4,231.7 178.4,221.8 168.1,208.7 "/>
  <polygon class="st2" points="172.7,333 173.1,341.8 160.4,341.8 151.8,292.9 160.4,325.6"/>
  <polyline class="st1" points="141.5,341.8 160.4,341.8 151.8,292.9 153.6,280.5 151.6,266.9 138.9,257.9 137.8,264.9 144.7,279.5 141.5,341.8"/>
  <polygon class="st1" points="132.7,259.8 124.7,227.9 124.7,203 116.1,209.5 107.1,205 109.7,217.5 108.2,254.6 117.7,269.5 111.6,277.8 107.6,320 119.4,272.2 117.8,269.6 119.5,272.2"/>
  <polygon class="st2" points="287,245.9 305.7,255.4 311.2,283.8 308.1,287.1 293.7,271.5 286.5,254.8"/>
  <polygon class="st1" points="299.6,252.3 287,245.9 286.5,254.8 293.7,271.5 298.1,276.3 302.9,269.9"/>
  <polygon class="st0" points="276.3,219.6 293,222.6 323.1,209.8 326.9,202.6 315.1,198.7 285.6,199.3 263.7,208.2 258.3,216.1 266.7,219.5"/>
  <polygon class="st1" points="326.9,202.6 328.7,213.5 318.5,222.3 317.6,226.4 304,233.1 294.8,232.5 294.8,232.5 293,222.6 323.1,209.8"/>
  <polygon class="st2" points="294.8,232.5 294.8,232.5 274.1,231.1 261.5,223.5 258.3,216.1 266.7,219.5 276.3,219.6 293,222.6"/>
  <polygon class="st2" points="37.4,285 25,287.9 18.5,286.7 25.2,301.4 35.3,303.6 46.6,292.6 41.3,278.7"/>
  <polygon class="st1" points="50,265.6 44.8,253.2 44,274.4 41.3,278.7 46.6,292.6 49,290.2"/>
  <polygon class="st0" points="37.4,285 41.3,278.7 44,274.4 44.8,253.2 42,251.5 29.1,259.9 18.5,286.7 25,287.9"/>
  <polygon class="st0" points="147.6,54.3 163.4,36.6 141.1,43 129.3,58 131.7,63.7 128.5,75.3 128.5,75.3 102.6,94.1 97.2,119.9 104.8,122.5 144.5,95 147,75.9 153.6,64.9 147.3,64.4"/>
  <polygon class="st1" points="163.4,36.6 179.4,39 178.2,48.2 165.9,97.2 144.5,95 147,75.9 153.6,64.9 147.3,64.4 147.6,54.3"/>
  <polygon class="st2" points="144.5,95 104.8,122.5 117.6,126.6 164,102.1 165.9,97.2"/>
  <polygon class="st0" points="185.2,39 196.5,35 187.2,45.2 186.4,58 194.8,63.1 180.4,135.5 174,140.1 169.2,135.3 167.5,109.6 173.1,48.7"/>
  <polygon class="st2" points="180.4,135.5 194.8,63.1 186.4,58 187.2,45.2 196.5,35 216.5,54.5 222.6,80.8 189.3,137.7 178.8,143.6"/>
  <polygon class="st1" points="178.8,143.6 173.7,145.8 169.8,142.1 169.2,135.3 174,140.1 180.4,135.5"/>
  <polygon class="st1" points="195.5,150 201.5,151.6 224.3,149.3 232.5,139.6 233.4,124.4 223.3,120.5 208.4,111.7 199.3,113.5 195.8,119.6 198.6,129.9"/>
  <polyline class="st2" points="233.4,124.4 242.4,140.5 234.1,151.5 201.9,155 195.5,150 201.5,151.6 224.3,149.3 232.5,139.6 233.4,124.4"/>
  <polygon class="st2" points="241.7,87.8 228.1,91.9 221.4,91.9 206.4,82.7 210.6,99.4 228.4,115.5 241.7,116.6 243.4,107.8"/>
  <polygon class="st1" points="206.4,82.7 218.2,76.9 229.3,75.5 241.7,87.8 228.1,91.9 221.4,91.9"/>
  <polygon class="st2" points="121.3,70.8 103.8,85.9 102.6,94.1 128.5,75.3 123.8,66.8"/>
  <polygon class="st1" points="129.3,58 123.8,66.8 128.5,75.3 131.7,63.7"/>
  <polygon class="st0" points="117.3,64.4 103.8,85.9 121.3,70.8 129.3,58 125.9,58"/>
  <polygon class="st0" points="114.3,127.4 113,135.7 131.7,184.3 141.5,179.7 147.1,169.9 149.4,138.2 152.8,102.5 145.5,102"/>
  <polygon class="st1" points="156.8,140.4 155.3,131.4 157.9,107.3 156.1,100.4 145.5,102 152.8,102.5 149.4,138.2 147.1,169.9 152.1,160.8"/>
  <polygon class="st0" points="99.8,141.1 96,126.5 81.3,137.1 77.9,163.8 80.5,185.1 100.5,166.1"/>
  <polyline class="st1" points="80.5,185.1 100.7,173.6 107.4,164.1 104.6,137.6 96,126.5 99.8,141.1 100.5,166.1 80.5,185.1"/>
  <polygon class="st0" points="50.4,161.7 48.1,155.1 50,152.9 43.8,158.2 42.5,172.6 43.5,178.3 46.2,182.6 52.5,175.3"/>
  <polygon class="st2" points="46.2,182.6 55.3,188.6 61.9,188.6 66.9,185.2 52.5,175.3"/>
  <polygon class="st1" points="56.4,158.5 50,152.9 48.1,155.1 50.4,161.7 52.5,175.3 66.9,185.2 67.8,173.1"/>
</svg>
