<?xml version="1.0" encoding="utf-8"?>
<svg version="1.1" id="Legobox" xmlns="http://www.w3.org/2000/svg" xmlns:xlink="http://www.w3.org/1999/xlink" x="0px" y="0px"
   viewBox="0 0 300 300" style="enable-background:new 0 0 300 300;" xml:space="preserve" aria-labelledby="legobox-logo" role="img">
  <style type="text/css">.st0{fill:#E480B0;} .st1{fill:#EFA2BF;} .st2{fill:#BC6191;} .st3{fill:#C96F9E;}</style>
  <polygon class="st0" points="0.5,217.7 178.6,277.8 178.6,148.7 0.5,98.6 "/>
  <polygon class="st1" points="129.6,45.1 300,86.3 178.6,148.7 0.5,98.6 "/>
  <polygon class="st2" points="300,203.2 178.6,277.8 178.6,148.7 300,86.3 "/>
  <path class="st3" d="M108.5,96.4c0,6.1-14.7,11.1-32.8,11.1s-32.8-5-32.8-11.1V71.9h65.7V96.4z"/>
  <path class="st3" d="M261,89.7c0,6.1-14.7,11.1-32.8,11.1s-32.8-5-32.8-11.1V65.2H261V89.7z"/>
  <path class="st3" d="M172.6,68.8c0,6-14.4,10.9-32.1,10.9s-32.1-4.9-32.1-10.9V44.9h64.1V68.8z"/>
  <path class="st3" d="M201.1,121.2c0,6.6-15.8,11.9-35.2,11.9s-35.2-5.3-35.2-11.9V94.9h70.4V121.2z"/>
  <ellipse class="st1" cx="75.6" cy="71.9" rx="32.8" ry="11.1"/>
  <ellipse class="st1" cx="228.2" cy="65.2" rx="32.8" ry="11.1"/>
  <ellipse class="st1" cx="140.6" cy="44.9" rx="32.1" ry="10.9"/>
  <ellipse class="st1" cx="166" cy="94.9" rx="35.2" ry="11.9"/>
</svg>
