<svg version="1" xmlns="http://www.w3.org/2000/svg" width="933.333" height="933.333" viewBox="0 0 700.000000 700.000000"><path d="M253.1 134.2L253 164l3.6 4c21.6 23.9 121.3 23.8 142.9-.1l3.5-3.9v-29.8c0-29.7 0-29.7-1.9-25.6-2.3 5.1-9.3 9.7-20.5 13.5-44.8 15-121.5 5.6-126.9-15.6-.2-1.1-.5 11.4-.6 27.7zM455 178.8v27.1l4.3 2.9c7.3 5.1 9.2 7.8 9.2 12.9 0 4.1-.4 4.9-4.7 8.8-2.6 2.3-6.8 5.2-9.3 6.4-33.4 15.7-100.3 15.9-133.3.4-8.8-4.1-13.9-8.4-15.1-12.7-.6-2-1 7.9-1 29-.1 31.8-.1 32.1 2.2 35.5 17.1 25.4 119.1 29.4 153.5 6 9.1-6.2 9.2-6.8 9.2-41 0-27.5.1-29.3 1.8-28.6 17.6 6.9 35.6 9.7 61.6 9.6 33.8 0 62.1-7.2 72-18.1l3.6-4-.1-29.8c0-16.8-.4-28.8-.9-27.6-2.8 7.1-17.7 14.5-36.7 18.3-45.5 9.2-104.6-.1-114-17.9l-2.3-4.3v27.1zM251.8 171.3c-4 8.3-18.3 15-41.8 19.4-13.6 2.5-53.4 2.5-67 0-22.3-4.2-36.4-10.4-41.1-18l-1.9-3.2v59.4l3.1 3.6c6 6.8 22.7 13.2 43.9 16.7 9.9 1.7 49.1 1.7 59 0 21.1-3.5 37.9-9.9 43.8-16.6 4.1-4.7 4.3-7.2 4-38.5-.3-25.8-.3-26.3-2-22.8z"/><path d="M557.4 274.6l-141.1 72.5-204.8-57.6C98.9 257.8 5.5 231.6 3.9 231.3l-2.9-.6v277l208 70.2L417 648l141.3-86.8 141.2-86.8.3-136.2c.1-74.9-.1-136.2-.5-136.2-.5 0-64.3 32.7-141.9 72.6z"/></svg>